<mxfile host="Electron" agent="Mozilla/5.0 (Windows NT 10.0; Win64; x64) AppleWebKit/537.36 (KHTML, like Gecko) draw.io/26.1.1 Chrome/132.0.6834.210 Electron/34.3.3 Safari/537.36" version="26.1.1">
  <diagram name="P치gina-1" id="0jXRKI6wqZk8ryi9BQ4d">
    <mxGraphModel dx="1036" dy="702" grid="1" gridSize="10" guides="1" tooltips="1" connect="1" arrows="1" fold="1" page="1" pageScale="1" pageWidth="827" pageHeight="1169" math="0" shadow="0">
      <root>
        <mxCell id="0" />
        <mxCell id="1" parent="0" />
        <mxCell id="Gs-s9x808rHnt7RP8_IO-1" value="Sistema Gimnacio" style="shape=rect;html=1;verticalAlign=top;fontStyle=1;whiteSpace=wrap;align=center;" parent="1" vertex="1">
          <mxGeometry x="120" y="30" width="560" height="670" as="geometry" />
        </mxCell>
        <mxCell id="Gs-s9x808rHnt7RP8_IO-8" value="Due침o de las mascostas" style="shape=umlActor;html=1;verticalLabelPosition=bottom;verticalAlign=top;align=center;" parent="1" vertex="1">
          <mxGeometry x="730" y="160" width="30" height="60" as="geometry" />
        </mxCell>
        <mxCell id="Gs-s9x808rHnt7RP8_IO-9" value="Veterinario" style="shape=umlActor;html=1;verticalLabelPosition=bottom;verticalAlign=top;align=center;" parent="1" vertex="1">
          <mxGeometry x="50" y="440" width="30" height="60" as="geometry" />
        </mxCell>
        <mxCell id="Gs-s9x808rHnt7RP8_IO-10" value="Iniciar sesion" style="ellipse;whiteSpace=wrap;html=1;" parent="1" vertex="1">
          <mxGeometry x="530" y="310" width="120" height="20" as="geometry" />
        </mxCell>
        <mxCell id="Gs-s9x808rHnt7RP8_IO-13" value="" style="edgeStyle=none;html=1;endArrow=none;verticalAlign=bottom;rounded=0;exitX=1;exitY=0.5;exitDx=0;exitDy=0;" parent="1" source="Gs-s9x808rHnt7RP8_IO-10" target="Gs-s9x808rHnt7RP8_IO-8" edge="1">
          <mxGeometry width="160" relative="1" as="geometry">
            <mxPoint x="330" y="270" as="sourcePoint" />
            <mxPoint x="490" y="270" as="targetPoint" />
            <Array as="points" />
          </mxGeometry>
        </mxCell>
        <mxCell id="Gs-s9x808rHnt7RP8_IO-16" value="Registrarse" style="ellipse;whiteSpace=wrap;html=1;" parent="1" vertex="1">
          <mxGeometry x="535" y="360" width="100" height="20" as="geometry" />
        </mxCell>
        <mxCell id="Gs-s9x808rHnt7RP8_IO-17" value="&amp;lt;&amp;lt;extend&amp;gt;&amp;gt;" style="edgeStyle=none;html=1;startArrow=open;endArrow=none;startSize=12;verticalAlign=bottom;dashed=1;labelBackgroundColor=none;rounded=0;entryX=0.5;entryY=0;entryDx=0;entryDy=0;exitX=0.444;exitY=1.033;exitDx=0;exitDy=0;exitPerimeter=0;" parent="1" source="Gs-s9x808rHnt7RP8_IO-10" target="Gs-s9x808rHnt7RP8_IO-16" edge="1">
          <mxGeometry x="0.4951" y="-1" width="160" relative="1" as="geometry">
            <mxPoint x="330" y="270" as="sourcePoint" />
            <mxPoint x="490" y="270" as="targetPoint" />
            <mxPoint as="offset" />
          </mxGeometry>
        </mxCell>
        <mxCell id="Gs-s9x808rHnt7RP8_IO-24" value="Cancelar reservas" style="ellipse;whiteSpace=wrap;html=1;" parent="1" vertex="1">
          <mxGeometry x="400" y="175" width="110" height="30" as="geometry" />
        </mxCell>
        <mxCell id="Gs-s9x808rHnt7RP8_IO-25" value="&amp;lt;&amp;lt;extend&amp;gt;&amp;gt;" style="edgeStyle=none;html=1;startArrow=open;endArrow=none;startSize=12;verticalAlign=bottom;dashed=1;labelBackgroundColor=none;rounded=0;entryX=0.793;entryY=0.08;entryDx=0;entryDy=0;entryPerimeter=0;exitX=1;exitY=0.5;exitDx=0;exitDy=0;" parent="1" source="MV7djkIGgmI7L40TYSij-12" target="Gs-s9x808rHnt7RP8_IO-24" edge="1">
          <mxGeometry width="160" relative="1" as="geometry">
            <mxPoint x="530" y="170" as="sourcePoint" />
            <mxPoint x="490" y="270" as="targetPoint" />
          </mxGeometry>
        </mxCell>
        <mxCell id="Gs-s9x808rHnt7RP8_IO-26" value="Historial medico" style="ellipse;whiteSpace=wrap;html=1;" parent="1" vertex="1">
          <mxGeometry x="170" y="569" width="140" height="30" as="geometry" />
        </mxCell>
        <mxCell id="Gs-s9x808rHnt7RP8_IO-27" value="Selecciona la mascota" style="ellipse;whiteSpace=wrap;html=1;" parent="1" vertex="1">
          <mxGeometry x="310" y="500" width="120" height="35" as="geometry" />
        </mxCell>
        <mxCell id="Gs-s9x808rHnt7RP8_IO-28" value="Ver Ficha medica" style="ellipse;whiteSpace=wrap;html=1;" parent="1" vertex="1">
          <mxGeometry x="170" y="470" width="120" height="30" as="geometry" />
        </mxCell>
        <mxCell id="Gs-s9x808rHnt7RP8_IO-32" value="" style="edgeStyle=none;html=1;endArrow=none;verticalAlign=bottom;rounded=0;exitX=0.578;exitY=0.789;exitDx=0;exitDy=0;exitPerimeter=0;entryX=0;entryY=0.5;entryDx=0;entryDy=0;" parent="1" source="Gs-s9x808rHnt7RP8_IO-9" target="Gs-s9x808rHnt7RP8_IO-26" edge="1">
          <mxGeometry width="160" relative="1" as="geometry">
            <mxPoint x="330" y="270" as="sourcePoint" />
            <mxPoint x="490" y="270" as="targetPoint" />
          </mxGeometry>
        </mxCell>
        <mxCell id="Gs-s9x808rHnt7RP8_IO-43" value="Validar datos" style="ellipse;whiteSpace=wrap;html=1;" parent="1" vertex="1">
          <mxGeometry x="304" y="290" width="110" height="30" as="geometry" />
        </mxCell>
        <mxCell id="Gs-s9x808rHnt7RP8_IO-47" value="&amp;lt;&amp;lt;include&amp;gt;&amp;gt;" style="edgeStyle=none;html=1;endArrow=open;verticalAlign=bottom;dashed=1;labelBackgroundColor=none;rounded=0;exitX=1;exitY=0.5;exitDx=0;exitDy=0;entryX=0.205;entryY=0.244;entryDx=0;entryDy=0;entryPerimeter=0;" parent="1" source="Gs-s9x808rHnt7RP8_IO-43" target="Gs-s9x808rHnt7RP8_IO-10" edge="1">
          <mxGeometry width="160" relative="1" as="geometry">
            <mxPoint x="330" y="270" as="sourcePoint" />
            <mxPoint x="490" y="270" as="targetPoint" />
          </mxGeometry>
        </mxCell>
        <mxCell id="Gs-s9x808rHnt7RP8_IO-49" value="Usuario" style="ellipse;whiteSpace=wrap;html=1;" parent="1" vertex="1">
          <mxGeometry x="140" y="240" width="120" height="30" as="geometry" />
        </mxCell>
        <mxCell id="Gs-s9x808rHnt7RP8_IO-51" value="Contrase침a" style="ellipse;whiteSpace=wrap;html=1;" parent="1" vertex="1">
          <mxGeometry x="120" y="310" width="110" height="30" as="geometry" />
        </mxCell>
        <mxCell id="Gs-s9x808rHnt7RP8_IO-52" value="&amp;lt;&amp;lt;include&amp;gt;&amp;gt;" style="edgeStyle=none;html=1;endArrow=open;verticalAlign=bottom;dashed=1;labelBackgroundColor=none;rounded=0;exitX=0.633;exitY=0.889;exitDx=0;exitDy=0;exitPerimeter=0;entryX=0.236;entryY=0.156;entryDx=0;entryDy=0;entryPerimeter=0;" parent="1" source="Gs-s9x808rHnt7RP8_IO-49" target="Gs-s9x808rHnt7RP8_IO-43" edge="1">
          <mxGeometry width="160" relative="1" as="geometry">
            <mxPoint x="330" y="270" as="sourcePoint" />
            <mxPoint x="490" y="270" as="targetPoint" />
          </mxGeometry>
        </mxCell>
        <mxCell id="Gs-s9x808rHnt7RP8_IO-53" value="&amp;lt;&amp;lt;include&amp;gt;&amp;gt;" style="edgeStyle=none;html=1;endArrow=open;verticalAlign=bottom;dashed=1;labelBackgroundColor=none;rounded=0;entryX=0;entryY=0.5;entryDx=0;entryDy=0;" parent="1" target="Gs-s9x808rHnt7RP8_IO-43" edge="1">
          <mxGeometry width="160" relative="1" as="geometry">
            <mxPoint x="240" y="325" as="sourcePoint" />
            <mxPoint x="490" y="270" as="targetPoint" />
          </mxGeometry>
        </mxCell>
        <mxCell id="Gs-s9x808rHnt7RP8_IO-55" value="" style="edgeStyle=none;html=1;endArrow=none;verticalAlign=bottom;rounded=0;exitX=0.5;exitY=0.5;exitDx=0;exitDy=0;exitPerimeter=0;entryX=0.1;entryY=0.867;entryDx=0;entryDy=0;entryPerimeter=0;" parent="1" source="Gs-s9x808rHnt7RP8_IO-9" target="Gs-s9x808rHnt7RP8_IO-10" edge="1">
          <mxGeometry width="160" relative="1" as="geometry">
            <mxPoint x="330" y="270" as="sourcePoint" />
            <mxPoint x="490" y="270" as="targetPoint" />
          </mxGeometry>
        </mxCell>
        <mxCell id="Gs-s9x808rHnt7RP8_IO-57" value="Turnos" style="ellipse;whiteSpace=wrap;html=1;" parent="1" vertex="1">
          <mxGeometry x="535" y="230" width="116" height="50" as="geometry" />
        </mxCell>
        <mxCell id="Gs-s9x808rHnt7RP8_IO-58" value="&amp;lt;&amp;lt;include&amp;gt;&amp;gt;" style="edgeStyle=none;html=1;endArrow=open;verticalAlign=bottom;dashed=1;labelBackgroundColor=none;rounded=0;exitX=0.443;exitY=0.983;exitDx=0;exitDy=0;exitPerimeter=0;entryX=0.5;entryY=0;entryDx=0;entryDy=0;" parent="1" source="Gs-s9x808rHnt7RP8_IO-57" target="Gs-s9x808rHnt7RP8_IO-10" edge="1">
          <mxGeometry width="160" relative="1" as="geometry">
            <mxPoint x="330" y="270" as="sourcePoint" />
            <mxPoint x="490" y="270" as="targetPoint" />
          </mxGeometry>
        </mxCell>
        <mxCell id="Gs-s9x808rHnt7RP8_IO-60" value="Nombre" style="ellipse;whiteSpace=wrap;html=1;" parent="1" vertex="1">
          <mxGeometry x="496" y="420" width="50" height="30" as="geometry" />
        </mxCell>
        <mxCell id="Gs-s9x808rHnt7RP8_IO-61" value="Email" style="ellipse;whiteSpace=wrap;html=1;" parent="1" vertex="1">
          <mxGeometry x="550" y="420" width="50" height="30" as="geometry" />
        </mxCell>
        <mxCell id="Gs-s9x808rHnt7RP8_IO-62" value="Contrase침a" style="ellipse;whiteSpace=wrap;html=1;" parent="1" vertex="1">
          <mxGeometry x="600" y="420" width="70" height="30" as="geometry" />
        </mxCell>
        <mxCell id="Gs-s9x808rHnt7RP8_IO-65" value="&amp;lt;&amp;lt;include&amp;gt;&amp;gt;" style="edgeStyle=none;html=1;endArrow=open;verticalAlign=bottom;dashed=1;labelBackgroundColor=none;rounded=0;entryX=0.5;entryY=0;entryDx=0;entryDy=0;exitX=0.22;exitY=0.9;exitDx=0;exitDy=0;exitPerimeter=0;" parent="1" source="Gs-s9x808rHnt7RP8_IO-16" target="Gs-s9x808rHnt7RP8_IO-60" edge="1">
          <mxGeometry width="160" relative="1" as="geometry">
            <mxPoint x="330" y="460" as="sourcePoint" />
            <mxPoint x="490" y="460" as="targetPoint" />
          </mxGeometry>
        </mxCell>
        <mxCell id="Gs-s9x808rHnt7RP8_IO-66" value="&amp;lt;&amp;lt;include&amp;gt;&amp;gt;" style="edgeStyle=none;html=1;endArrow=open;verticalAlign=bottom;dashed=1;labelBackgroundColor=none;rounded=0;entryX=0.5;entryY=0;entryDx=0;entryDy=0;exitX=0.44;exitY=0.933;exitDx=0;exitDy=0;exitPerimeter=0;" parent="1" source="Gs-s9x808rHnt7RP8_IO-16" target="Gs-s9x808rHnt7RP8_IO-61" edge="1">
          <mxGeometry width="160" relative="1" as="geometry">
            <mxPoint x="330" y="460" as="sourcePoint" />
            <mxPoint x="490" y="460" as="targetPoint" />
          </mxGeometry>
        </mxCell>
        <mxCell id="Gs-s9x808rHnt7RP8_IO-67" value="&amp;lt;&amp;lt;include&amp;gt;&amp;gt;" style="edgeStyle=none;html=1;endArrow=open;verticalAlign=bottom;dashed=1;labelBackgroundColor=none;rounded=0;exitX=1;exitY=1;exitDx=0;exitDy=0;entryX=0.5;entryY=0;entryDx=0;entryDy=0;" parent="1" source="Gs-s9x808rHnt7RP8_IO-16" target="Gs-s9x808rHnt7RP8_IO-62" edge="1">
          <mxGeometry width="160" relative="1" as="geometry">
            <mxPoint x="330" y="460" as="sourcePoint" />
            <mxPoint x="490" y="460" as="targetPoint" />
          </mxGeometry>
        </mxCell>
        <mxCell id="Gs-s9x808rHnt7RP8_IO-77" value="&amp;lt;&amp;lt;include&amp;gt;&amp;gt;" style="edgeStyle=none;html=1;endArrow=open;verticalAlign=bottom;dashed=1;labelBackgroundColor=none;rounded=0;exitX=1;exitY=0.5;exitDx=0;exitDy=0;entryX=0.081;entryY=0.271;entryDx=0;entryDy=0;entryPerimeter=0;" parent="1" source="Gs-s9x808rHnt7RP8_IO-28" target="Gs-s9x808rHnt7RP8_IO-27" edge="1">
          <mxGeometry width="160" relative="1" as="geometry">
            <mxPoint x="330" y="450" as="sourcePoint" />
            <mxPoint x="490" y="450" as="targetPoint" />
          </mxGeometry>
        </mxCell>
        <mxCell id="Gs-s9x808rHnt7RP8_IO-90" value="&amp;lt;&amp;lt;include&amp;gt;&amp;gt;" style="edgeStyle=none;html=1;endArrow=open;verticalAlign=bottom;dashed=1;labelBackgroundColor=none;rounded=0;exitX=0.077;exitY=0.794;exitDx=0;exitDy=0;exitPerimeter=0;entryX=0.684;entryY=0.143;entryDx=0;entryDy=0;entryPerimeter=0;" parent="1" source="Gs-s9x808rHnt7RP8_IO-27" target="Gs-s9x808rHnt7RP8_IO-26" edge="1">
          <mxGeometry width="160" relative="1" as="geometry">
            <mxPoint x="330" y="450" as="sourcePoint" />
            <mxPoint x="490" y="450" as="targetPoint" />
          </mxGeometry>
        </mxCell>
        <mxCell id="MV7djkIGgmI7L40TYSij-1" value="Confirmar turno" style="ellipse;whiteSpace=wrap;html=1;" parent="1" vertex="1">
          <mxGeometry x="336" y="80" width="104" height="30" as="geometry" />
        </mxCell>
        <mxCell id="MV7djkIGgmI7L40TYSij-2" style="edgeStyle=orthogonalEdgeStyle;rounded=0;orthogonalLoop=1;jettySize=auto;html=1;exitX=0.5;exitY=1;exitDx=0;exitDy=0;" parent="1" source="MV7djkIGgmI7L40TYSij-1" target="MV7djkIGgmI7L40TYSij-1" edge="1">
          <mxGeometry relative="1" as="geometry" />
        </mxCell>
        <mxCell id="MV7djkIGgmI7L40TYSij-6" value="Elegir la especialidad" style="ellipse;whiteSpace=wrap;html=1;" parent="1" vertex="1">
          <mxGeometry x="535" y="160" width="120" height="40" as="geometry" />
        </mxCell>
        <mxCell id="MV7djkIGgmI7L40TYSij-9" value="&amp;lt;&amp;lt;extend&amp;gt;&amp;gt;" style="edgeStyle=none;html=1;startArrow=open;endArrow=none;startSize=12;verticalAlign=bottom;dashed=1;labelBackgroundColor=none;rounded=0;entryX=0.5;entryY=0;entryDx=0;entryDy=0;exitX=0.5;exitY=1;exitDx=0;exitDy=0;" parent="1" source="MV7djkIGgmI7L40TYSij-6" target="Gs-s9x808rHnt7RP8_IO-57" edge="1">
          <mxGeometry x="0.4951" y="-1" width="160" relative="1" as="geometry">
            <mxPoint x="553" y="260" as="sourcePoint" />
            <mxPoint x="550" y="319" as="targetPoint" />
            <mxPoint as="offset" />
          </mxGeometry>
        </mxCell>
        <mxCell id="MV7djkIGgmI7L40TYSij-12" value="Reservar turno" style="ellipse;whiteSpace=wrap;html=1;" parent="1" vertex="1">
          <mxGeometry x="565" y="90" width="70" height="30" as="geometry" />
        </mxCell>
        <mxCell id="MV7djkIGgmI7L40TYSij-13" value="&amp;lt;&amp;lt;extend&amp;gt;&amp;gt;" style="edgeStyle=none;html=1;startArrow=open;endArrow=none;startSize=12;verticalAlign=bottom;dashed=1;labelBackgroundColor=none;rounded=0;entryX=0.575;entryY=0.015;entryDx=0;entryDy=0;exitX=0.5;exitY=1;exitDx=0;exitDy=0;entryPerimeter=0;" parent="1" source="MV7djkIGgmI7L40TYSij-12" target="MV7djkIGgmI7L40TYSij-6" edge="1">
          <mxGeometry x="0.5123" y="-1" width="160" relative="1" as="geometry">
            <mxPoint x="533" y="220" as="sourcePoint" />
            <mxPoint x="530" y="279" as="targetPoint" />
            <mxPoint as="offset" />
          </mxGeometry>
        </mxCell>
        <mxCell id="MV7djkIGgmI7L40TYSij-14" value="&amp;lt;&amp;lt;extend&amp;gt;&amp;gt;" style="edgeStyle=none;html=1;startArrow=open;endArrow=none;startSize=12;verticalAlign=bottom;dashed=1;labelBackgroundColor=none;rounded=0;entryX=0;entryY=0.5;entryDx=0;entryDy=0;exitX=0.571;exitY=0.104;exitDx=0;exitDy=0;exitPerimeter=0;" parent="1" target="MV7djkIGgmI7L40TYSij-12" edge="1" source="Gs-s9x808rHnt7RP8_IO-1">
          <mxGeometry x="-0.0097" y="17" width="160" relative="1" as="geometry">
            <mxPoint x="710" y="310" as="sourcePoint" />
            <mxPoint x="423" y="117" as="targetPoint" />
            <mxPoint as="offset" />
          </mxGeometry>
        </mxCell>
        <mxCell id="MV7djkIGgmI7L40TYSij-15" value="Guarda en la base de dato" style="ellipse;whiteSpace=wrap;html=1;" parent="1" vertex="1">
          <mxGeometry x="250" y="150" width="125" height="50" as="geometry" />
        </mxCell>
        <mxCell id="MV7djkIGgmI7L40TYSij-16" value="&amp;lt;&amp;lt;include&amp;gt;&amp;gt;" style="edgeStyle=none;html=1;endArrow=open;verticalAlign=bottom;dashed=1;labelBackgroundColor=none;rounded=0;entryX=0.228;entryY=1.1;entryDx=0;entryDy=0;exitX=0.5;exitY=0;exitDx=0;exitDy=0;entryPerimeter=0;" parent="1" source="MV7djkIGgmI7L40TYSij-15" target="MV7djkIGgmI7L40TYSij-1" edge="1">
          <mxGeometry x="-0.2588" width="160" relative="1" as="geometry">
            <mxPoint x="330" y="170" as="sourcePoint" />
            <mxPoint x="336" y="211" as="targetPoint" />
            <mxPoint as="offset" />
          </mxGeometry>
        </mxCell>
        <mxCell id="MV7djkIGgmI7L40TYSij-17" value="Enviar un email al usuario" style="ellipse;whiteSpace=wrap;html=1;" parent="1" vertex="1">
          <mxGeometry x="160" y="70" width="100" height="50" as="geometry" />
        </mxCell>
        <mxCell id="MV7djkIGgmI7L40TYSij-18" value="&amp;lt;&amp;lt;extend&amp;gt;&amp;gt;" style="edgeStyle=none;html=1;startArrow=open;endArrow=none;startSize=12;verticalAlign=bottom;dashed=1;labelBackgroundColor=none;rounded=0;entryX=0.625;entryY=0.97;entryDx=0;entryDy=0;exitX=0.5;exitY=1;exitDx=0;exitDy=0;entryPerimeter=0;" parent="1" target="MV7djkIGgmI7L40TYSij-17" edge="1">
          <mxGeometry x="0.0547" y="8" width="160" relative="1" as="geometry">
            <mxPoint x="269" y="150" as="sourcePoint" />
            <mxPoint x="240" y="182" as="targetPoint" />
            <mxPoint as="offset" />
          </mxGeometry>
        </mxCell>
        <mxCell id="MV7djkIGgmI7L40TYSij-19" value="Consultas o turnos" style="ellipse;whiteSpace=wrap;html=1;" parent="1" vertex="1">
          <mxGeometry x="525" y="470" width="120" height="40" as="geometry" />
        </mxCell>
        <mxCell id="MV7djkIGgmI7L40TYSij-21" value="Diagn칩sticos realizados" style="ellipse;whiteSpace=wrap;html=1;" parent="1" vertex="1">
          <mxGeometry x="531" y="529" width="120" height="40" as="geometry" />
        </mxCell>
        <mxCell id="MV7djkIGgmI7L40TYSij-22" value="Tratamientos&amp;nbsp;" style="ellipse;whiteSpace=wrap;html=1;" parent="1" vertex="1">
          <mxGeometry x="535" y="599" width="120" height="40" as="geometry" />
        </mxCell>
        <mxCell id="MV7djkIGgmI7L40TYSij-23" value="&amp;lt;&amp;lt;extend&amp;gt;&amp;gt;" style="edgeStyle=none;html=1;startArrow=open;endArrow=none;startSize=12;verticalAlign=bottom;dashed=1;labelBackgroundColor=none;rounded=0;entryX=0;entryY=0;entryDx=0;entryDy=0;exitX=1;exitY=0.5;exitDx=0;exitDy=0;" parent="1" source="Gs-s9x808rHnt7RP8_IO-27" target="MV7djkIGgmI7L40TYSij-19" edge="1">
          <mxGeometry x="0.4951" y="-1" width="160" relative="1" as="geometry">
            <mxPoint x="510" y="560" as="sourcePoint" />
            <mxPoint x="551" y="599" as="targetPoint" />
            <mxPoint as="offset" />
          </mxGeometry>
        </mxCell>
        <mxCell id="MV7djkIGgmI7L40TYSij-25" value="&amp;lt;&amp;lt;extend&amp;gt;&amp;gt;" style="edgeStyle=none;html=1;startArrow=open;endArrow=none;startSize=12;verticalAlign=bottom;dashed=1;labelBackgroundColor=none;rounded=0;exitX=0.78;exitY=0.943;exitDx=0;exitDy=0;exitPerimeter=0;" parent="1" source="Gs-s9x808rHnt7RP8_IO-27" target="MV7djkIGgmI7L40TYSij-21" edge="1">
          <mxGeometry x="0.4951" y="-1" width="160" relative="1" as="geometry">
            <mxPoint x="540" y="630" as="sourcePoint" />
            <mxPoint x="581" y="669" as="targetPoint" />
            <mxPoint as="offset" />
          </mxGeometry>
        </mxCell>
        <mxCell id="MV7djkIGgmI7L40TYSij-26" value="&amp;lt;&amp;lt;extend&amp;gt;&amp;gt;" style="edgeStyle=none;html=1;startArrow=open;endArrow=none;startSize=12;verticalAlign=bottom;dashed=1;labelBackgroundColor=none;rounded=0;entryX=0;entryY=0.5;entryDx=0;entryDy=0;exitX=0.663;exitY=0.965;exitDx=0;exitDy=0;exitPerimeter=0;" parent="1" source="Gs-s9x808rHnt7RP8_IO-27" target="MV7djkIGgmI7L40TYSij-22" edge="1">
          <mxGeometry x="0.4951" y="-1" width="160" relative="1" as="geometry">
            <mxPoint x="540" y="660" as="sourcePoint" />
            <mxPoint x="581" y="699" as="targetPoint" />
            <mxPoint as="offset" />
          </mxGeometry>
        </mxCell>
        <mxCell id="uOMSTXD_v7ck7wYzILBU-3" value="" style="endArrow=none;html=1;rounded=0;entryX=0;entryY=1;entryDx=0;entryDy=0;entryPerimeter=0;" edge="1" parent="1" source="Gs-s9x808rHnt7RP8_IO-27" target="Gs-s9x808rHnt7RP8_IO-8">
          <mxGeometry width="50" height="50" relative="1" as="geometry">
            <mxPoint x="390" y="390" as="sourcePoint" />
            <mxPoint x="440" y="340" as="targetPoint" />
            <Array as="points">
              <mxPoint x="480" y="380" />
            </Array>
          </mxGeometry>
        </mxCell>
      </root>
    </mxGraphModel>
  </diagram>
</mxfile>
